<svg width="1721" height="752" viewBox="0 0 1721 752" xmlns="http://www.w3.org/2000/svg"><g transform="translate(8 8)" fill="none" fill-rule="evenodd"><path stroke="#21A8D9" stroke-width="10" stroke-linecap="round" stroke-linejoin="round" d="M585 50l38-14"/><path stroke="#21A8D9" stroke-width="4" stroke-linecap="round" stroke-linejoin="round" d="M1699 50l-25 9"/><path stroke="#47F2A9" stroke-width="6" stroke-linecap="round" stroke-linejoin="round" d="M920 249l-38.268-6.8"/><path stroke="#F8AF41" stroke-width="15" stroke-linecap="round" stroke-linejoin="round" d="M57 0L0 34"/><path stroke="#EB2779" stroke-width="10" stroke-linecap="round" stroke-linejoin="round" d="M146.5 248.5L109 216M1158.5.5L1121 1"/><path stroke="#F8AF41" stroke-width="4" stroke-linecap="round" stroke-linejoin="round" d="M1690.5 320.5L1711 340"/><circle fill="#EB2779" cx="272" cy="124" r="16"/><circle fill="#F8AF41" cx="1468" cy="356" r="16"/><circle fill="#EB2779" cx="1377" cy="114" r="6"/><circle fill="#48F1A8" cx="835" cy="31" r="5"/><circle fill="#EB2779" cx="1065" cy="108" r="5"/><path fill="#4BF1AA" d="M1121 311.018l18.048-13.52 1.245 22.516z"/><g stroke="#4CF0AE" stroke-linecap="round" stroke-width="1.44"><path d="M810 145.306c4.513.844 7.82 2.106 9.92 3.785 3.494 2.793 5.202 7.146 5.867 9.818M814 142c4.513.845 7.82 2.106 9.92 3.786 3.494 2.792 5.202 7.145 5.867 9.817"/></g><g stroke="#EB2779" stroke-linecap="round" stroke-width="3.6"><path d="M218.963 540.818c9.47-6.484 17.546-10.099 24.229-10.844 11.113-1.24 21.827 3.437 27.726 6.984M220.19 527.904c9.47-6.485 17.547-10.1 24.23-10.845 11.112-1.24 21.826 3.437 27.726 6.985"/></g><g transform="translate(0 370)"><path stroke="#21A8D9" stroke-width="10" stroke-linecap="round" stroke-linejoin="round" d="M585 82l37.732 22.2"/><path stroke="#21A8D9" stroke-width="4" stroke-linecap="round" stroke-linejoin="round" d="M1699 82l-25 9"/><path stroke="#47F2A9" stroke-width="6" stroke-linecap="round" stroke-linejoin="round" d="M920 253l-38.268 21.2"/><path stroke="#F8AF41" stroke-width="15" stroke-linecap="round" stroke-linejoin="round" d="M54.5 93.5L0 66"/><path stroke="#21A8D9" stroke-width="10" stroke-linecap="round" stroke-linejoin="round" d="M145 253l-36-5"/><path stroke="#EB2779" stroke-width="10" stroke-linecap="round" stroke-linejoin="round" d="M1158.5 32.5L1121 0"/><path stroke="#F8AF41" stroke-width="4" stroke-linecap="round" stroke-linejoin="round" d="M1690.5 352.5L1711 372"/><circle fill="#EB2779" cx="1377" cy="146" r="6"/><circle fill="#48F1A8" cx="835" cy="63" r="5"/><circle fill="#EB2779" cx="1065" cy="140" r="5"/><path fill="#4BF1AA" d="M1121 343.018l18.048-13.52 1.245 22.516z"/><g stroke="#4CF0AE" stroke-linecap="round" stroke-width="1.44"><path d="M810 177.306c4.513.844 7.82 2.106 9.92 3.785 3.494 2.793 5.202 7.146 5.867 9.818M814 174c4.513.845 7.82 2.106 9.92 3.786 3.494 2.792 5.202 7.145 5.867 9.817"/></g></g></g></svg>