<svg width="1721" height="379" viewBox="0 0 1721 379" xmlns="http://www.w3.org/2000/svg"><g transform="translate(8 5)" fill="none" fill-rule="evenodd"><path stroke="#21A8D9" stroke-width="10" stroke-linecap="round" stroke-linejoin="round" d="M585 82l37.732 22.2"/><path stroke="#21A8D9" stroke-width="4" stroke-linecap="round" stroke-linejoin="round" d="M1699 82l-25 9"/><path stroke="#F8AF41" stroke-width="15" stroke-linecap="round" stroke-linejoin="round" d="M57 32L0 66"/><path stroke="#EB2779" stroke-width="10" stroke-linecap="round" stroke-linejoin="round" d="M146.5 280.5L109 248M1158.5 32.5L1121 0"/><path stroke="#F8AF41" stroke-width="4" stroke-linecap="round" stroke-linejoin="round" d="M1690.5 352.5L1711 372"/><circle fill="#EB2779" cx="272" cy="156" r="16"/><circle fill="#EB2779" cx="1377" cy="146" r="6"/><circle fill="#48F1A8" cx="835" cy="63" r="5"/><circle fill="#EB2779" cx="1065" cy="140" r="5"/><path fill="#4BF1AA" d="M1121 343.018l18.048-13.52 1.245 22.516z"/><path d="M810 177.306c4.513.844 7.82 2.106 9.92 3.785 3.494 2.793 5.202 7.146 5.867 9.818M814 174c4.513.845 7.82 2.106 9.92 3.786 3.494 2.792 5.202 7.145 5.867 9.817" stroke="#4CF0AE" stroke-linecap="round" stroke-width="1.44"/></g></svg>