<svg width="114" height="114" viewBox="0 0 114 114" xmlns="http://www.w3.org/2000/svg"><g transform="translate(23.99 19.3)"><path d="M64.878 12.887L43.352 60.846H21.947L.95 14.07C-2.047 7.392 3.156 0 10.85 0c4.367 0 8.298 2.49 9.949 6.299L33.478 35.55 46.736 5.695C48.252 2.245 51.84 0 55.811 0c7.051 0 11.81 6.764 9.067 12.887z" stroke="#FFF" stroke-width="1.082"/><path d="M21.233 58.172h19.752v5.953H21.233z"/><path d="M34.566 58.227L38.71 68.41c.595 1.469 2.435 2.11 4.088 1.434 1.661-.674 2.522-2.41 1.926-3.88l-4.142-10.187" stroke="#FFF" stroke-width="1.082"/><path d="M34.566 58.227L38.71 68.41c.595 1.469-.271 3.206-1.93 3.882-1.658.674-3.49.033-4.088-1.436l-4.14-10.184m-.001.001l4.14 10.184c.598 1.469-.27 3.206-1.926 3.882-1.662.674-3.49.033-4.089-1.434l-4.129-10.187" stroke="#FFF" stroke-width="1.082"/><rect stroke="#FFF" stroke-width="1.082" transform="rotate(59.13 18.548 56.338)" x="15.301" y="50.74" width="6.494" height="11.196" rx="3.247"/><rect stroke="#FFF" stroke-width="1.082" transform="rotate(59.13 21.866 61.916)" x="18.619" y="56.318" width="6.494" height="11.196" rx="3.247"/><rect stroke="#FFF" stroke-width="1.082" transform="rotate(59.13 25.023 67.598)" x="21.776" y="62" width="6.494" height="11.196" rx="3.247"/><path d="M34.182 33.897l-4.87 9.865c-.701 1.42.035 3.214 1.642 4.007 1.623.793 3.48.27 4.18-1.136l4.87-9.865" stroke="#FFF" stroke-width="1.082"/></g></svg>